{
    "asset" : {
        "copyright" : "Andrew Punchak",
        "generator" : "Khronos glTF Blender I/O v1.2.75",
        "version" : "2.0"
    },
    "scene" : 0,
    "scenes" : [
        {
            "name" : "Scene",
            "nodes" : [
                0,
                1,
                2
            ]
        }
    ],
    "nodes" : [
        {
            "mesh" : 0,
            "name" : "Text",
            "translation" : [
                0.008011587895452976,
                0.12757980823516846,
                0.2231418490409851
            ]
        },
        {
            "mesh" : 1,
            "name" : "Sphere",
            "rotation" : [
                0.7071067690849304,
                0,
                0,
                0.7071067690849304
            ],
            "scale" : [
                0.6007393002510071,
                0.6007393002510071,
                0.6007393002510071
            ],
            "translation" : [
                -0.018237199634313583,
                0.13404953479766846,
                0.22528406977653503
            ]
        },
        {
            "mesh" : 2,
            "name" : "Text.001",
            "scale" : [
                0.3125082552433014,
                0.3125082552433014,
                0.3125082552433014
            ],
            "translation" : [
                0.00321842054836452,
                0.8893041610717773,
                0.30171969532966614
            ]
        }
    ],
    "animations" : [
        {
            "channels" : [
                {
                    "sampler" : 0,
                    "target" : {
                        "node" : 1,
                        "path" : "rotation"
                    }
                }
            ],
            "name" : "SphereAction",
            "samplers" : [
                {
                    "input" : 12,
                    "interpolation" : "LINEAR",
                    "output" : 13
                }
            ]
        }
    ],
    "materials" : [
        {
            "doubleSided" : true,
            "emissiveFactor" : [
                0,
                0,
                0
            ],
            "name" : "Material.001",
            "pbrMetallicRoughness" : {
                "baseColorFactor" : [
                    0.8000000715255737,
                    0.21166175603866577,
                    0.744544506072998,
                    1
                ],
                "metallicFactor" : 0,
                "roughnessFactor" : 0.5
            }
        },
        {
            "doubleSided" : true,
            "emissiveFactor" : [
                0,
                0,
                0
            ],
            "name" : "Material.003",
            "pbrMetallicRoughness" : {
                "baseColorFactor" : [
                    0.24380023777484894,
                    0.8000000715255737,
                    0.7546463012695312,
                    1
                ],
                "metallicFactor" : 0,
                "roughnessFactor" : 0.5
            }
        },
        {
            "doubleSided" : true,
            "emissiveFactor" : [
                0,
                0,
                0
            ],
            "name" : "Material.002",
            "pbrMetallicRoughness" : {
                "baseColorFactor" : [
                    0.44159531593322754,
                    0.8000000715255737,
                    0.26748427748680115,
                    1
                ],
                "metallicFactor" : 0,
                "roughnessFactor" : 0.5
            }
        }
    ],
    "meshes" : [
        {
            "name" : "Text",
            "primitives" : [
                {
                    "attributes" : {
                        "POSITION" : 0,
                        "NORMAL" : 1,
                        "TEXCOORD_0" : 2
                    },
                    "indices" : 3,
                    "material" : 0
                }
            ]
        },
        {
            "name" : "Sphere",
            "primitives" : [
                {
                    "attributes" : {
                        "POSITION" : 4,
                        "NORMAL" : 5,
                        "TEXCOORD_0" : 6
                    },
                    "indices" : 7,
                    "material" : 1
                }
            ]
        },
        {
            "name" : "Spinning",
            "primitives" : [
                {
                    "attributes" : {
                        "POSITION" : 8,
                        "NORMAL" : 9,
                        "TEXCOORD_0" : 10
                    },
                    "indices" : 11,
                    "material" : 2
                }
            ]
        }
    ],
    "accessors" : [
        {
            "bufferView" : 0,
            "componentType" : 5126,
            "count" : 7666,
            "max" : [
                1.3949120044708252,
                0,
                0.9090673923492432
            ],
            "min" : [
                -1.382732629776001,
                0,
                -0.9952955842018127
            ],
            "type" : "VEC3"
        },
        {
            "bufferView" : 1,
            "componentType" : 5126,
            "count" : 7666,
            "type" : "VEC3"
        },
        {
            "bufferView" : 2,
            "componentType" : 5126,
            "count" : 7666,
            "type" : "VEC2"
        },
        {
            "bufferView" : 3,
            "componentType" : 5123,
            "count" : 16953,
            "type" : "SCALAR"
        },
        {
            "bufferView" : 4,
            "componentType" : 5126,
            "count" : 15872,
            "max" : [
                1.010000228881836,
                1.0099999904632568,
                1.0100003480911255
            ],
            "min" : [
                -1.0099998712539673,
                -1.0099999904632568,
                -1.0099999904632568
            ],
            "type" : "VEC3"
        },
        {
            "bufferView" : 5,
            "componentType" : 5126,
            "count" : 15872,
            "type" : "VEC3"
        },
        {
            "bufferView" : 6,
            "componentType" : 5126,
            "count" : 15872,
            "type" : "VEC2"
        },
        {
            "bufferView" : 7,
            "componentType" : 5123,
            "count" : 23808,
            "type" : "SCALAR"
        },
        {
            "bufferView" : 8,
            "componentType" : 5126,
            "count" : 178,
            "max" : [
                5.250518798828125,
                0,
                0.14050231873989105
            ],
            "min" : [
                -5.268362045288086,
                0,
                -1.132167100906372
            ],
            "type" : "VEC3"
        },
        {
            "bufferView" : 9,
            "componentType" : 5126,
            "count" : 178,
            "type" : "VEC3"
        },
        {
            "bufferView" : 10,
            "componentType" : 5126,
            "count" : 178,
            "type" : "VEC2"
        },
        {
            "bufferView" : 11,
            "componentType" : 5123,
            "count" : 360,
            "type" : "SCALAR"
        },
        {
            "bufferView" : 12,
            "componentType" : 5126,
            "count" : 460,
            "max" : [
                19.166666666666668
            ],
            "min" : [
                0.041666666666666664
            ],
            "type" : "SCALAR"
        },
        {
            "bufferView" : 13,
            "componentType" : 5126,
            "count" : 460,
            "type" : "VEC4"
        }
    ],
    "bufferViews" : [
        {
            "buffer" : 0,
            "byteLength" : 91992,
            "byteOffset" : 0
        },
        {
            "buffer" : 0,
            "byteLength" : 91992,
            "byteOffset" : 91992
        },
        {
            "buffer" : 0,
            "byteLength" : 61328,
            "byteOffset" : 183984
        },
        {
            "buffer" : 0,
            "byteLength" : 33906,
            "byteOffset" : 245312
        },
        {
            "buffer" : 0,
            "byteLength" : 190464,
            "byteOffset" : 279220
        },
        {
            "buffer" : 0,
            "byteLength" : 190464,
            "byteOffset" : 469684
        },
        {
            "buffer" : 0,
            "byteLength" : 126976,
            "byteOffset" : 660148
        },
        {
            "buffer" : 0,
            "byteLength" : 47616,
            "byteOffset" : 787124
        },
        {
            "buffer" : 0,
            "byteLength" : 2136,
            "byteOffset" : 834740
        },
        {
            "buffer" : 0,
            "byteLength" : 2136,
            "byteOffset" : 836876
        },
        {
            "buffer" : 0,
            "byteLength" : 1424,
            "byteOffset" : 839012
        },
        {
            "buffer" : 0,
            "byteLength" : 720,
            "byteOffset" : 840436
        },
        {
            "buffer" : 0,
            "byteLength" : 1840,
            "byteOffset" : 841156
        },
        {
            "buffer" : 0,
            "byteLength" : 7360,
            "byteOffset" : 842996
        }
    ],
    "buffers" : [
        {
            "byteLength" : 850356,
            "uri" : "data:application/octet-stream;base64,"
        }
    ]
}
